<svg width="220" height="200" viewBox="0 0 220 200" fill="none" xmlns="http://www.w3.org/2000/svg">
<path opacity="0.15" d="M170 40H50C38.9543 40 30 48.9543 30 60V120C30 131.046 38.9543 140 50 140H170C181.046 140 190 131.046 190 120V60C190 48.9543 181.046 40 170 40Z" fill="white"/>
<path opacity="0.4" d="M96.5 58H53.5C51.567 58 50 59.567 50 61.5C50 63.433 51.567 65 53.5 65H96.5C98.433 65 100 63.433 100 61.5C100 59.567 98.433 58 96.5 58Z" fill="white"/>
<path opacity="0.6" d="M125 72H55C52.2386 72 50 74.2386 50 77V83C50 85.7614 52.2386 88 55 88H125C127.761 88 130 85.7614 130 83V77C130 74.2386 127.761 72 125 72Z" fill="white"/>
<path opacity="0.3" d="M159 78H141C138.239 78 136 80.2385 136 83C136 85.7614 138.239 88 141 88H159C161.761 88 164 85.7614 164 83C164 80.2385 161.761 78 159 78Z" fill="white"/>
<path opacity="0.25" d="M84 96H56C52.6863 96 50 98.6863 50 102C50 105.314 52.6863 108 56 108H84C87.3137 108 90 105.314 90 102C90 98.6863 87.3137 96 84 96Z" fill="white"/>
<path opacity="0.9" d="M58 105C59.6569 105 61 103.657 61 102C61 100.343 59.6569 99 58 99C56.3431 99 55 100.343 55 102C55 103.657 56.3431 105 58 105Z" fill="#4CAF50"/>
<path opacity="0.25" d="M58 128H54C51.7909 128 50 129.791 50 132V152C50 154.209 51.7909 156 54 156H58C60.2091 156 62 154.209 62 152V132C62 129.791 60.2091 128 58 128Z" fill="white"/>
<path opacity="0.35" d="M76 118H72C69.7909 118 68 119.791 68 122V152C68 154.209 69.7909 156 72 156H76C78.2091 156 80 154.209 80 152V122C80 119.791 78.2091 118 76 118Z" fill="white"/>
<path opacity="0.45" d="M94 110H90C87.7909 110 86 111.791 86 114V152C86 154.209 87.7909 156 90 156H94C96.2091 156 98 154.209 98 152V114C98 111.791 96.2091 110 94 110Z" fill="white"/>
<path opacity="0.35" d="M112 120H108C105.791 120 104 121.791 104 124V152C104 154.209 105.791 156 108 156H112C114.209 156 116 154.209 116 152V124C116 121.791 114.209 120 112 120Z" fill="white"/>
<path opacity="0.55" d="M130 105H126C123.791 105 122 106.791 122 109V152C122 154.209 123.791 156 126 156H130C132.209 156 134 154.209 134 152V109C134 106.791 132.209 105 130 105Z" fill="white"/>
<path opacity="0.4" d="M148 115H144C141.791 115 140 116.791 140 119V152C140 154.209 141.791 156 144 156H148C150.209 156 152 154.209 152 152V119C152 116.791 150.209 115 148 115Z" fill="white"/>
<path opacity="0.65" d="M166 100H162C159.791 100 158 101.791 158 104V152C158 154.209 159.791 156 162 156H166C168.209 156 170 154.209 170 152V104C170 101.791 168.209 100 166 100Z" fill="white"/>
<path opacity="0.2" d="M172 72C179.732 72 186 65.732 186 58C186 50.268 179.732 44 172 44C164.268 44 158 50.268 158 58C158 65.732 164.268 72 172 72Z" fill="white"/>
<path opacity="0.7" d="M172 50C168 50 165 53 165 57V62L163 64H181L179 62V57C179 53 176 50 172 50Z" fill="white"/>
<path opacity="0.7" d="M172.5 64H171.5C170.672 64 170 64.6716 170 65.5C170 66.3284 170.672 67 171.5 67H172.5C173.328 67 174 66.3284 174 65.5C174 64.6716 173.328 64 172.5 64Z" fill="white"/>
</svg>
