<svg width="220" height="200" viewBox="0 0 220 200" fill="none" xmlns="http://www.w3.org/2000/svg">
<path opacity="0.15" d="M134 30H86C77.1634 30 70 37.1634 70 46V154C70 162.837 77.1634 170 86 170H134C142.837 170 150 162.837 150 154V46C150 37.1634 142.837 30 134 30Z" fill="white"/>
<path opacity="0.12" d="M135 40H85C79.4772 40 75 44.4772 75 50V150C75 155.523 79.4772 160 85 160H135C140.523 160 145 155.523 145 150V50C145 44.4772 140.523 40 135 40Z" fill="white"/>
<path opacity="0.5" d="M134 52H86C83.7909 52 82 53.7909 82 56C82 58.2091 83.7909 60 86 60H134C136.209 60 138 58.2091 138 56C138 53.7909 136.209 52 134 52Z" fill="white"/>
<path opacity="0.3" d="M127 66H93C91.3431 66 90 67.3431 90 69C90 70.6569 91.3431 72 93 72H127C128.657 72 130 70.6569 130 69C130 67.3431 128.657 66 127 66Z" fill="white"/>
<path opacity="0.9" d="M110 80L102 100H109L107 118L118 94H111L110 80Z" fill="white"/>
<path opacity="0.35" d="M129 130H91C86.5817 130 83 133.582 83 138C83 142.418 86.5817 146 91 146H129C133.418 146 137 142.418 137 138C137 133.582 133.418 130 129 130Z" fill="white"/>
<path opacity="0.5" d="M55 100C49 93.3333 49 86.6666 55 80" stroke="white" stroke-width="3" stroke-linecap="round"/>
<path opacity="0.3" d="M44 108C34.6667 97.3333 34.6667 85.3333 44 72" stroke="white" stroke-width="3" stroke-linecap="round"/>
<path opacity="0.5" d="M165 100C171 93.3333 171 86.6666 165 80" stroke="white" stroke-width="3" stroke-linecap="round"/>
<path opacity="0.3" d="M176 108C185.333 97.3333 185.333 85.3333 176 72" stroke="white" stroke-width="3" stroke-linecap="round"/>
<path opacity="0.2" d="M36 156C44.8366 156 52 148.837 52 140C52 131.163 44.8366 124 36 124C27.1634 124 20 131.163 20 140C20 148.837 27.1634 156 36 156Z" fill="white"/>
<path d="M31.6626 137H33.7485L35.9517 142.375H36.0454L38.2485 137H40.3345V145H38.6938V139.793H38.6274L36.5571 144.961H35.4399L33.3696 139.773H33.3032V145H31.6626V137Z" fill="white"/>
<path opacity="0.2" d="M184 156C192.837 156 200 148.837 200 140C200 131.163 192.837 124 184 124C175.163 124 168 131.163 168 140C168 148.837 175.163 156 184 156Z" fill="white"/>
<path d="M179.079 145.117C178.461 145.117 177.93 144.992 177.485 144.742C177.042 144.49 176.701 144.133 176.461 143.672C176.222 143.208 176.102 142.66 176.102 142.027C176.102 141.41 176.222 140.868 176.461 140.402C176.701 139.936 177.038 139.573 177.473 139.312C177.911 139.052 178.424 138.922 179.012 138.922C179.408 138.922 179.777 138.986 180.118 139.113C180.461 139.238 180.761 139.427 181.016 139.68C181.274 139.932 181.474 140.25 181.618 140.633C181.761 141.013 181.833 141.458 181.833 141.969V142.426H176.766V141.395H180.266C180.266 141.155 180.214 140.943 180.11 140.758C180.006 140.573 179.861 140.428 179.676 140.324C179.494 140.217 179.282 140.164 179.04 140.164C178.787 140.164 178.563 140.223 178.368 140.34C178.175 140.454 178.024 140.609 177.915 140.805C177.805 140.997 177.749 141.212 177.747 141.449V142.43C177.747 142.727 177.801 142.983 177.911 143.199C178.023 143.415 178.18 143.582 178.383 143.699C178.586 143.816 178.827 143.875 179.106 143.875C179.291 143.875 179.46 143.849 179.614 143.797C179.767 143.745 179.899 143.667 180.008 143.562C180.118 143.458 180.201 143.331 180.258 143.18L181.797 143.281C181.719 143.651 181.559 143.974 181.317 144.25C181.077 144.523 180.767 144.737 180.387 144.891C180.01 145.042 179.573 145.117 179.079 145.117ZM182.95 137H185.036L187.239 142.375H187.333L189.536 137H191.622V145H189.981V139.793H189.915L187.844 144.961H186.727L184.657 139.773H184.59V145H182.95V137Z" fill="white"/>
<path opacity="0.5" d="M54 138L72 128" stroke="white" stroke-width="2" stroke-linecap="round" stroke-dasharray="4 3"/>
<path opacity="0.5" d="M166 138L148 128" stroke="white" stroke-width="2" stroke-linecap="round" stroke-dasharray="4 3"/>
</svg>
